<?xml version="1.0" encoding="UTF-8"?>
<svg version="1.1" xmlns="http://www.w3.org/2000/svg" width="160" height="160">
<path d="M0 0 C1.2384668 -0.03673828 1.2384668 -0.03673828 2.50195312 -0.07421875 C8.40473294 -0.10212787 12.94914257 0.91527965 17.8125 4.375 C22.99982884 10.45441723 24.1368315 18.62052876 23.8125 26.375 C22.83997284 33.75694423 20.61787789 39.40481786 16.2421875 45.40234375 C14.06989871 48.39962747 11.8125 51.59454761 11.8125 55.375 C13.27888916 55.39687378 13.27888916 55.39687378 14.77490234 55.41918945 C18.4468001 55.47772927 22.11811976 55.55495134 25.78955078 55.63745117 C27.37018358 55.67044137 28.95092687 55.69855148 30.53173828 55.72143555 C42.78862422 55.90362202 52.81582348 57.07929126 63.4375 63.5625 C64.37142578 64.11454102 64.37142578 64.11454102 65.32421875 64.67773438 C66.82601726 65.56726119 68.32015561 66.46970174 69.8125 67.375 C70.3075 65.89 70.3075 65.89 70.8125 64.375 C72.4625 64.375 74.1125 64.375 75.8125 64.375 C76.410625 63.26125 77.00875 62.1475 77.625 61 C79.18945617 58.08687472 79.91157498 57.30895001 82.8125 55.375 C90.07405623 54.64884438 95.92118467 56.62416731 102.05078125 60.3359375 C104.82731402 62.75102291 105.28091703 64.61393569 105.5390625 68.24609375 C105.53641706 70.10186943 105.50158675 71.95782934 105.4375 73.8125 C105.44394531 74.74126953 105.45039063 75.67003906 105.45703125 76.62695312 C105.36750436 82.3444661 104.71216382 85.92117343 100.8125 90.375 C98.671875 92.203125 98.671875 92.203125 96.5625 93.625 C94.47262191 95.00103709 94.47262191 95.00103709 92.8125 96.375 C92.8125 97.035 92.8125 97.695 92.8125 98.375 C93.4725 98.705 94.1325 99.035 94.8125 99.375 C94.8125 100.035 94.8125 100.695 94.8125 101.375 C92.4375 101.125 92.4375 101.125 89.8125 100.375 C88.5 98.3125 88.5 98.3125 87.8125 96.375 C87.1525 96.375 86.4925 96.375 85.8125 96.375 C85.73 97.57125 85.6475 98.7675 85.5625 100 C84.99594961 104.3639692 83.57671419 106.88336102 80.8125 110.375 C80.30460937 111.03757812 79.79671875 111.70015625 79.2734375 112.3828125 C75.30556428 117.29282913 71.61912414 120.00165759 65.8125 122.375 C64.6575 122.931875 63.5025 123.48875 62.3125 124.0625 C58.35520356 125.54648617 55.00768013 126.00700174 50.8125 126.375 C50.915625 127.096875 51.01875 127.81875 51.125 128.5625 C50.68033051 132.56452538 48.83233019 133.83559734 45.8125 136.375 C44.760625 136.808125 44.760625 136.808125 43.6875 137.25 C40.52383582 139.14819851 39.92138694 141.98997671 38.8125 145.375 C39.1802504 147.54726827 39.1802504 147.54726827 39.8125 149.375 C41.09125 149.684375 42.37 149.99375 43.6875 150.3125 C45.91351675 150.85105244 47.75989999 151.3487 49.8125 152.375 C49.8125 153.365 49.8125 154.355 49.8125 155.375 C48.37715159 155.5976746 46.93904475 155.80261906 45.5 156 C44.69949219 156.11601562 43.89898437 156.23203125 43.07421875 156.3515625 C40.8125 156.375 40.8125 156.375 37.8125 154.375 C34.33043183 154.57982754 31.69387502 155.91659369 28.625 157.4375 C23.64314987 159.76068601 19.2222368 159.7815773 13.8125 159.375 C13.8125 158.715 13.8125 158.055 13.8125 157.375 C11.1725 157.375 8.5325 157.375 5.8125 157.375 C5.4825 156.385 5.1525 155.395 4.8125 154.375 C2.93862784 153.57287372 2.93862784 153.57287372 0.75 153.1875 C0.01652344 153.02894531 -0.71695313 152.87039062 -1.47265625 152.70703125 C-2.03855469 152.59746094 -2.60445312 152.48789063 -3.1875 152.375 C-2.8575 150.725 -2.5275 149.075 -2.1875 147.375 C2.13989258 145.75550611 5.9558842 145.06193657 10.5625 144.8125 C14.84529844 144.6949501 14.84529844 144.6949501 18.8125 143.375 C20.07901292 137.8490282 20.07901292 137.8490282 18.5 132.625 C17.943125 131.8825 17.38625 131.14 16.8125 130.375 C16.41998047 129.39853516 16.41998047 129.39853516 16.01953125 128.40234375 C14.3957682 125.67505241 12.66432068 125.03644359 9.8125 123.6875 C2.70311775 120.01572419 -3.71591797 115.08237304 -8.1875 108.375 C-9.94863741 107.35033823 -11.71154452 106.32776111 -13.5 105.3515625 C-15.40408177 104.24966333 -16.8388281 103.12034011 -18.1875 101.375 C-18.1875 100.715 -18.1875 100.055 -18.1875 99.375 C-18.744375 99.16875 -19.30125 98.9625 -19.875 98.75 C-25.93226211 95.14838469 -27.86162723 90.26575766 -29.609375 83.7421875 C-29.80015625 82.96101563 -29.9909375 82.17984375 -30.1875 81.375 C-30.373125 80.68277344 -30.55875 79.99054688 -30.75 79.27734375 C-32.14727624 73.20168726 -30.78706223 68.87407395 -28.1875 63.375 C-27.89875 62.34375 -27.61 61.3125 -27.3125 60.25 C-25.88922145 56.6127326 -24.10421311 54.97467908 -21.1875 52.375 C-20.55070312 51.80523437 -19.91390625 51.23546875 -19.2578125 50.6484375 C-16.3175035 48.04099367 -13.37098913 45.51554487 -10.25 43.125 C-7.92818239 41.46169291 -7.92818239 41.46169291 -7.1875 38.375 C-14.77082376 35.91554365 -22.14871671 40.2917264 -28.875 43.625 C-30.5146875 44.49125 -30.5146875 44.49125 -32.1875 45.375 C-32.1875 46.035 -32.1875 46.695 -32.1875 47.375 C-37.48627676 47.87964541 -40.09466575 46.74021927 -44.1875 43.375 C-48.30583964 37.77327737 -47.94649916 32.07105929 -47.1875 25.375 C-45.05276742 20.86834232 -42.26927871 18.2008468 -38.1875 15.375 C-35.33304531 14.4235151 -33.97025636 14.34366901 -31.0625 14.5 C-26.06212329 14.50814394 -21.50129222 14.07741458 -17.1875 11.375 C-15.54196497 9.14001958 -14.38152533 6.96819047 -13.2578125 4.43359375 C-10.45661959 -0.95410211 -5.23953591 0.00799319 0 0 Z M28.3125 135.375 C25.97919862 138.48606851 26.12727572 141.53473619 25.8125 145.375 C28.2875 146.365 28.2875 146.365 30.8125 147.375 C31.8025 144.075 32.7925 140.775 33.8125 137.375 C33.1525 137.375 32.4925 137.375 31.8125 137.375 C31.4825 136.385 31.1525 135.395 30.8125 134.375 C29.65071244 134.28254997 29.65071244 134.28254997 28.3125 135.375 Z " fill="#AA794C" transform="translate(51.1875,0.625)"/>
<path d="M0 0 C6.64382097 -0.26608545 10.88845268 -0.06402087 16.12109375 4.1875 C19.80692159 8.63249835 20.59548845 12.37616497 20.12109375 18.1875 C11.71626758 22.61913562 3.41745299 25.30652459 -5.87890625 27.1875 C-6.82765625 27.39375 -7.77640625 27.6 -8.75390625 27.8125 C-10.87890625 28.1875 -10.87890625 28.1875 -13.87890625 28.1875 C-14.70390625 29.0125 -15.52890625 29.8375 -16.37890625 30.6875 C-17.20390625 31.5125 -18.02890625 32.3375 -18.87890625 33.1875 C-19.86890625 33.1875 -20.85890625 33.1875 -21.87890625 33.1875 C-22.37390625 31.7025 -22.37390625 31.7025 -22.87890625 30.1875 C-27.33390625 31.6725 -27.33390625 31.6725 -31.87890625 33.1875 C-32.87890625 30.1875 -32.87890625 30.1875 -31.5859375 27.5234375 C-30.96074219 26.54632813 -30.33554687 25.56921875 -29.69140625 24.5625 C-29.07910156 23.58023437 -28.46679688 22.59796875 -27.8359375 21.5859375 C-25.74180517 19.01947593 -25.01842127 18.68498204 -21.87890625 18.1875 C-21.54890625 17.5275 -21.21890625 16.8675 -20.87890625 16.1875 C-21.53890625 16.1875 -22.19890625 16.1875 -22.87890625 16.1875 C-22.54890625 13.8775 -22.21890625 11.5675 -21.87890625 9.1875 C-21.26402344 9.02894531 -20.64914063 8.87039063 -20.015625 8.70703125 C-14.55311337 7.13013395 -12.76278441 6.16874409 -9.87890625 1.1875 C-6.51640721 0.25744707 -3.46931527 0.22595269 0 0 Z " fill="#E8B6A7" transform="translate(46.87890625,5.8125)"/>
<path d="M0 0 C4.41367192 3.99989018 7.65186069 8.58585802 11.03515625 13.4765625 C12.88999548 15.85872183 14.41780645 17.45691854 17 19 C18.485 18.9690625 18.485 18.9690625 20 18.9375 C23 19 23 19 25.375 21 C25.91125 21.66 26.4475 22.32 27 23 C25.02 23.66 23.04 24.32 21 25 C21 24.34 21 23.68 21 23 C17.7 22.01 14.4 21.02 11 20 C11.33 21.32 11.66 22.64 12 24 C13.32 24.33 14.64 24.66 16 25 C16.12375 26.0828125 16.12375 26.0828125 16.25 27.1875 C16.82496089 30.11768244 16.82496089 30.11768244 18.9375 32.375 C21.46327964 35.58962863 22.07142106 38.0535395 23 42 C22.0409375 42.495 22.0409375 42.495 21.0625 43 C17.9447236 46.02329832 18.27956936 48.73656724 18 53 C19.32 53.66 20.64 54.32 22 55 C22.08636719 54.37351563 22.17273438 53.74703125 22.26171875 53.1015625 C23.41065771 46.4187432 23.41065771 46.4187432 26.375 44.3125 C29.34655678 43.95874324 30.54184552 44.36123035 33 46 C32.18619792 47.69270833 31.37239583 49.38541667 30.55859375 51.078125 C29.88238056 53.40467666 30.24246093 54.73239959 31 57 C32.27875 57.309375 33.5575 57.61875 34.875 57.9375 C37.10101675 58.47605244 38.94739999 58.9737 41 60 C41 60.99 41 61.98 41 63 C39.56465159 63.2226746 38.12654475 63.42761906 36.6875 63.625 C35.88699219 63.74101562 35.08648437 63.85703125 34.26171875 63.9765625 C32 64 32 64 29 62 C25.51793183 62.20482754 22.88137502 63.54159369 19.8125 65.0625 C14.83064987 67.38568601 10.4097368 67.4065773 5 67 C5 66.34 5 65.68 5 65 C2.36 65 -0.28 65 -3 65 C-3.33 64.01 -3.66 63.02 -4 62 C-5.87387216 61.19787372 -5.87387216 61.19787372 -8.0625 60.8125 C-9.16271484 60.57466797 -9.16271484 60.57466797 -10.28515625 60.33203125 C-10.85105469 60.22246094 -11.41695312 60.11289063 -12 60 C-11.67 58.35 -11.34 56.7 -11 55 C-6.67260742 53.38050611 -2.8566158 52.68693657 1.75 52.4375 C6.03279844 52.3199501 6.03279844 52.3199501 10 51 C11.26154465 45.54175527 11.26154465 45.54175527 9.75 40.375 C9.1725 39.59125 8.595 38.8075 8 38 C6.9849911 36.00757511 5.98126556 34.00925805 5 32 C7.31 32 9.62 32 12 32 C11.60772135 29.25404947 11.15313177 28.14802738 9.125 26.1875 C4.6996138 21.63195538 3.60662455 15.88484269 2.52734375 9.8203125 C2.35332031 9.21960938 2.17929687 8.61890625 2 8 C1.34 7.67 0.68 7.34 0 7 C0 4.69 0 2.38 0 0 Z " fill="#CB650F" transform="translate(60,93)"/>
<path d="M0 0 C2.566947 1.57528941 3.81877209 2.40680045 4.71484375 5.33984375 C4.78832031 6.19707031 4.86179687 7.05429688 4.9375 7.9375 C5.02902344 8.79214844 5.12054688 9.64679688 5.21484375 10.52734375 C4.95459184 13.52260662 3.97464667 14.78942152 2 17 C2.474375 17.433125 2.94875 17.86625 3.4375 18.3125 C5 20 5 20 6 23 C8.00016466 24.20882096 8.00016466 24.20882096 10 25 C10 25.99 10 26.98 10 28 C9.34 28 8.68 28 8 28 C8.99 29.32 9.98 30.64 11 32 C10.34 33.32 9.68 34.64 9 36 C8.34 36 7.68 36 7 36 C7 37.32 7 38.64 7 40 C5.54176788 40.0270043 4.08339325 40.04639787 2.625 40.0625 C1.40683594 40.07990234 1.40683594 40.07990234 0.1640625 40.09765625 C-2 40 -2 40 -4 39 C-5.7015625 38.814375 -5.7015625 38.814375 -7.4375 38.625 C-11 38 -11 38 -12.79296875 36.85546875 C-14 35 -14 35 -13.7421875 32.07421875 C-9.97613523 17.36625787 -9.97613523 17.36625787 -3 12 C-0.44582534 8.42415547 -0.42642826 4.2642826 0 0 Z " fill="#D8CABD" transform="translate(86,74)"/>
<path d="M0 0 C1.8871875 0.0309375 1.8871875 0.0309375 3.8125 0.0625 C4.9375 4.8125 4.9375 4.8125 3.8125 7.0625 C4.4725 7.0625 5.1325 7.0625 5.8125 7.0625 C4.30344567 10.83513581 4.30344567 10.83513581 1.90625 11.9453125 C-0.6275161 13.29728471 -1.47897105 14.61361189 -2.9375 17.0625 C-3.36546875 17.76375 -3.7934375 18.465 -4.234375 19.1875 C-5.33854888 21.00908735 -5.33854888 21.00908735 -5.1875 23.0625 C0.2575 21.5775 0.2575 21.5775 5.8125 20.0625 C5.1525 22.0425 4.4925 24.0225 3.8125 26.0625 C4.8025 26.3925 5.7925 26.7225 6.8125 27.0625 C2.8525 29.0425 2.8525 29.0425 -1.1875 31.0625 C-1.1875 31.7225 -1.1875 32.3825 -1.1875 33.0625 C-6.48627676 33.56714541 -9.09466575 32.42771927 -13.1875 29.0625 C-17.30583964 23.46077737 -16.94649916 17.75855929 -16.1875 11.0625 C-14.05276742 6.55584232 -11.26927871 3.8883468 -7.1875 1.0625 C-4.43671116 0.14557039 -2.82801087 -0.04636083 0 0 Z " fill="#704D0F" transform="translate(20.1875,14.9375)"/>
<path d="M0 0 C5.68187076 1.26483384 11.40575837 3.13129746 15 8 C15.71704119 11.14113139 15.57204834 14.11172768 15.375 17.3125 C15.33439453 18.56643555 15.33439453 18.56643555 15.29296875 19.84570312 C15.22259563 21.89825247 15.11498322 23.94946591 15 26 C14.01 26 13.02 26 12 26 C11.34 24.68 10.68 23.36 10 22 C9.01 22 8.02 22 7 22 C6.34 21.67 5.68 21.34 5 21 C5 20.34 5 19.68 5 19 C3.68 18.67 2.36 18.34 1 18 C1 17.34 1 16.68 1 16 C-4.94 15.01 -4.94 15.01 -11 14 C-11 14.66 -11 15.32 -11 16 C-14.82097239 15.46930939 -17.06171403 14.50298434 -20 12 C-19.67 11.01 -19.34 10.02 -19 9 C-17.35 9 -15.7 9 -14 9 C-13.401875 7.88625 -12.80375 6.7725 -12.1875 5.625 C-9.23494047 0.12713053 -6.05263958 -0.4881161 0 0 Z " fill="#E8E5E1" transform="translate(141,56)"/>
<path d="M0 0 C6.66039451 -0.26674922 10.7672248 0.11390406 16.12109375 4.1875 C18.27303745 7.41541555 18.32195818 8.47150809 18.12109375 12.1875 C17.13109375 12.5175 16.14109375 12.8475 15.12109375 13.1875 C14.79109375 13.8475 14.46109375 14.5075 14.12109375 15.1875 C13.46109375 15.1875 12.80109375 15.1875 12.12109375 15.1875 C12.12109375 15.8475 12.12109375 16.5075 12.12109375 17.1875 C11.49460938 17.17589844 10.868125 17.16429688 10.22265625 17.15234375 C8.99675781 17.13880859 8.99675781 17.13880859 7.74609375 17.125 C6.52792969 17.10759766 6.52792969 17.10759766 5.28515625 17.08984375 C3.07172233 17.04283666 3.07172233 17.04283666 1.12109375 18.1875 C-0.87850637 18.227492 -2.87937867 18.23096799 -4.87890625 18.1875 C-3.61612493 14.39915605 -2.35777673 13.96738722 1.12109375 12.1875 C3.43359375 11.5 3.43359375 11.5 5.12109375 11.1875 C5.28796823 8.77104218 5.28796823 8.77104218 5.12109375 6.1875 C3.23609104 3.87186913 3.23609104 3.87186913 0.12109375 3.9375 C-2.99390354 3.87186913 -2.99390354 3.87186913 -4.87890625 6.1875 C-5.33552778 8.38041082 -5.69931825 10.59335889 -6.00390625 12.8125 C-6.17148437 14.00101563 -6.3390625 15.18953125 -6.51171875 16.4140625 C-6.63289063 17.32929688 -6.7540625 18.24453125 -6.87890625 19.1875 C-7.9875 19.39246094 -9.09609375 19.59742187 -10.23828125 19.80859375 C-11.70183492 20.08066462 -13.16537592 20.35280362 -14.62890625 20.625 C-15.35851563 20.75970703 -16.088125 20.89441406 -16.83984375 21.03320312 C-20.214373 21.66209267 -23.55525319 22.33072173 -26.87890625 23.1875 C-26.06640625 21.25 -26.06640625 21.25 -24.87890625 19.1875 C-23.88890625 18.8575 -22.89890625 18.5275 -21.87890625 18.1875 C-21.54890625 17.5275 -21.21890625 16.8675 -20.87890625 16.1875 C-21.53890625 16.1875 -22.19890625 16.1875 -22.87890625 16.1875 C-22.54890625 13.8775 -22.21890625 11.5675 -21.87890625 9.1875 C-21.26402344 9.02894531 -20.64914063 8.87039063 -20.015625 8.70703125 C-14.55311337 7.13013395 -12.76278441 6.16874409 -9.87890625 1.1875 C-6.51640721 0.25744707 -3.46931527 0.22595269 0 0 Z " fill="#F3C4B5" transform="translate(46.87890625,5.8125)"/>
<path d="M0 0 C4.41367192 3.99989018 7.65186069 8.58585802 11.03515625 13.4765625 C12.88999548 15.85872183 14.41780645 17.45691854 17 19 C18.485 18.9690625 18.485 18.9690625 20 18.9375 C23 19 23 19 25.375 21 C25.91125 21.66 26.4475 22.32 27 23 C25.02 23.66 23.04 24.32 21 25 C21 24.34 21 23.68 21 23 C17.7 22.01 14.4 21.02 11 20 C11.33 21.32 11.66 22.64 12 24 C13.32 24.33 14.64 24.66 16 25 C16.12375 26.0828125 16.12375 26.0828125 16.25 27.1875 C16.82496089 30.11768244 16.82496089 30.11768244 18.9375 32.375 C21.46327964 35.58962863 22.07142106 38.0535395 23 42 C17.86873508 45.93794749 17.86873508 45.93794749 14.375 46.1875 C10.82734351 44.41367175 9.63466866 41.43699564 8 38 C7.4225 36.865625 6.845 35.73125 6.25 34.5625 C5.63125 33.2940625 5.63125 33.2940625 5 32 C7.31 32 9.62 32 12 32 C11.60772135 29.25404947 11.15313177 28.14802738 9.125 26.1875 C4.6996138 21.63195538 3.60662455 15.88484269 2.52734375 9.8203125 C2.35332031 9.21960938 2.17929687 8.61890625 2 8 C1.34 7.67 0.68 7.34 0 7 C0 4.69 0 2.38 0 0 Z " fill="#633318" transform="translate(60,93)"/>
<path d="M0 0 C8.57142857 -0.28571429 8.57142857 -0.28571429 12 2 C12 2.66 12 3.32 12 4 C13.32 4.33 14.64 4.66 16 5 C16 5.66 16 6.32 16 7 C18.49064888 7.68707555 20.37886292 8 23 8 C24.20628008 10.33214148 25.1654738 12.49642139 26 15 C23.46364334 19.96243694 20.18467661 22.59726333 15.609375 25.703125 C15.07828125 26.13109375 14.5471875 26.5590625 14 27 C14 27.66 14 28.32 14 29 C14.66 29.33 15.32 29.66 16 30 C16 30.66 16 31.32 16 32 C13.05436986 31.6815535 11.38923394 31.33733608 9.125 29.375 C7.49231731 25.92822544 8.17659101 23.67367089 9 20 C9.37125 18.989375 9.7425 17.97875 10.125 16.9375 C11.13265577 13.55465565 10.80911919 11.39830059 10 8 C9.01 8.495 9.01 8.495 8 9 C7.608125 8.360625 7.21625 7.72125 6.8125 7.0625 C4.61527704 4.56221181 3.24208567 4.35049575 0 4 C0 2.68 0 1.36 0 0 Z " fill="#BCBAB8" transform="translate(130,70)"/>
<path d="M0 0 C2.4294516 3.6441774 2.16179575 5.71241272 2 10 C-6.40482617 14.43163562 -14.70364076 17.11902459 -24 19 C-24.94875 19.20625 -25.8975 19.4125 -26.875 19.625 C-29 20 -29 20 -32 20 C-33.2375 21.2375 -33.2375 21.2375 -34.5 22.5 C-35.7375 23.7375 -35.7375 23.7375 -37 25 C-37.99 25 -38.98 25 -40 25 C-40 23.35 -40 21.7 -40 20 C-37.48043257 18.72660518 -34.95941351 17.45623358 -32.4375 16.1875 C-31.73302734 15.83107422 -31.02855469 15.47464844 -30.30273438 15.10742188 C-13.95288479 6.89482462 -13.95288479 6.89482462 -6 9 C-6 8.34 -6 7.68 -6 7 C-5.34 7 -4.68 7 -4 7 C-3.67 6.01 -3.34 5.02 -3 4 C-2.01 4 -1.02 4 0 4 C0 2.68 0 1.36 0 0 Z " fill="#D8A191" transform="translate(65,14)"/>
<path d="M0 0 C0.33 0.99 0.66 1.98 1 3 C1.66 2.34 2.32 1.68 3 1 C6.5919305 -0.33034463 10.21470013 -0.07279423 14 0 C12 2 12 2 9.375 2.125 C8.59125 2.08375 7.8075 2.0425 7 2 C7 2.66 7 3.32 7 4 C7.66 4 8.32 4 9 4 C9.33 4.99 9.66 5.98 10 7 C10.33 6.67 10.66 6.34 11 6 C13.5 5.875 13.5 5.875 16 6 C16.33 6.33 16.66 6.66 17 7 C21.53705332 7.18526767 21.53705332 7.18526767 26 6.5 C31.65730016 5.08567496 36.62578135 6.24515309 42 8 C42 7.01 42 6.02 42 5 C43.32 5.33 44.64 5.66 46 6 C46 6.99 46 7.98 46 9 C44.56465159 9.2226746 43.12654475 9.42761906 41.6875 9.625 C40.88699219 9.74101562 40.08648437 9.85703125 39.26171875 9.9765625 C37 10 37 10 34 8 C30.51793183 8.20482754 27.88137502 9.54159369 24.8125 11.0625 C19.83064987 13.38568601 15.4097368 13.4065773 10 13 C10 12.34 10 11.68 10 11 C7.36 11 4.72 11 2 11 C1.67 10.01 1.34 9.02 1 8 C-0.87387216 7.19787372 -0.87387216 7.19787372 -3.0625 6.8125 C-3.79597656 6.65394531 -4.52945313 6.49539062 -5.28515625 6.33203125 C-5.85105469 6.22246094 -6.41695312 6.11289063 -7 6 C-6.625 3.5625 -6.625 3.5625 -6 1 C-4 0 -4 0 0 0 Z " fill="#7E4217" transform="translate(55,147)"/>
<path d="M0 0 C1.8871875 0.0309375 1.8871875 0.0309375 3.8125 0.0625 C4.65704356 3.44067425 4.92094919 5.73715243 3.8125 9.0625 C3.255625 9.124375 2.69875 9.18625 2.125 9.25 C-0.44067773 9.96408373 -0.44067773 9.96408373 -2.625 12.5 C-6.68716227 16.56216227 -10.60598509 17.28368397 -16.1875 18.0625 C-16.64608928 12.33013402 -15.84395061 9.50953453 -12.1875 5.0625 C-8.22346342 1.48519869 -5.34614743 -0.08764176 0 0 Z " fill="#BF9D46" transform="translate(20.1875,14.9375)"/>
<path d="M0 0 C1.953125 1.17578125 1.953125 1.17578125 4 3 C4.609375 5.48046875 4.609375 5.48046875 4.75 8.1875 C4.80671875 9.08855469 4.8634375 9.98960938 4.921875 10.91796875 C4.94765625 11.60503906 4.9734375 12.29210937 5 13 C4.34 11.68 3.68 10.36 3 9 C1.68 9.33 0.36 9.66 -1 10 C-1.10441406 10.58265625 -1.20882812 11.1653125 -1.31640625 11.765625 C-2.10216391 14.33393003 -3.21107513 15.70699355 -4.9375 17.75 C-8.0708955 21.74752135 -9.11254464 25.03024997 -10 30 C-4.34428139 31.70695733 1.31492008 33.39334698 7 35 C7 36.65 7 38.3 7 40 C5.54176788 40.0270043 4.08339325 40.04639787 2.625 40.0625 C1.40683594 40.07990234 1.40683594 40.07990234 0.1640625 40.09765625 C-2 40 -2 40 -4 39 C-5.7015625 38.814375 -5.7015625 38.814375 -7.4375 38.625 C-11 38 -11 38 -12.79296875 36.85546875 C-14 35 -14 35 -13.7421875 32.07421875 C-9.97613523 17.36625787 -9.97613523 17.36625787 -3 12 C-0.44582534 8.42415547 -0.42642826 4.2642826 0 0 Z " fill="#CBB6A4" transform="translate(86,74)"/>
<path d="M0 0 C-0.22816406 0.53109375 -0.45632812 1.0621875 -0.69140625 1.609375 C-1.12259766 2.66898438 -1.12259766 2.66898438 -1.5625 3.75 C-1.85253906 4.44609375 -2.14257812 5.1421875 -2.44140625 5.859375 C-3.07831803 8.30012784 -2.80248831 9.6403655 -2 12 C0.97 12.495 0.97 12.495 4 13 C4 14.32 4 15.64 4 17 C3.03578125 16.91621094 2.0715625 16.83242187 1.078125 16.74609375 C-0.18515625 16.64425781 -1.4484375 16.54242188 -2.75 16.4375 C-4.00296875 16.33308594 -5.2559375 16.22867188 -6.546875 16.12109375 C-9.46047583 16.01891997 -11.27709865 16.18790662 -14 17 C-16.33300933 17.03888349 -18.66709801 17.0448635 -21 17 C-21 16.34 -21 15.68 -21 15 C-16.545 14.505 -16.545 14.505 -12 14 C-12.33 13.01 -12.66 12.02 -13 11 C-12.07137808 8.96587579 -11.06246527 6.96752828 -10 5 C-9.505 3.6078125 -9.505 3.6078125 -9 2.1875 C-8.67 1.465625 -8.34 0.74375 -8 0 C-4.71023192 -1.09658936 -3.28696233 -0.79953138 0 0 Z " fill="#CC6917" transform="translate(93,138)"/>
<path d="M0 0 C0 0.99 0 1.98 0 3 C-0.66 3 -1.32 3 -2 3 C-1.01 4.32 -0.02 5.64 1 7 C0.34 8.32 -0.32 9.64 -1 11 C-7.40140935 10.53444296 -12.26769829 8.85288164 -18 6 C-17.67 4.35 -17.34 2.7 -17 1 C-16.67 1.66 -16.34 2.32 -16 3 C-15.01 3 -14.02 3 -13 3 C-12.67 2.01 -12.34 1.02 -12 0 C-7.33504809 -2.27823233 -4.71499489 -2.02071209 0 0 Z " fill="#DED7D0" transform="translate(96,99)"/>
<path d="M0 0 C4.41367192 3.99989018 7.65186069 8.58585802 11.03515625 13.4765625 C12.88999548 15.85872183 14.41780645 17.45691854 17 19 C18.485 18.9690625 18.485 18.9690625 20 18.9375 C23 19 23 19 25.375 21 C25.91125 21.66 26.4475 22.32 27 23 C25.02 23.66 23.04 24.32 21 25 C21 24.34 21 23.68 21 23 C17.7 22.01 14.4 21.02 11 20 C10.34 20.66 9.68 21.32 9 22 C8.34 20.68 7.68 19.36 7 18 C6.34 18.66 5.68 19.32 5 20 C4.80664062 19.14535156 4.61328125 18.29070312 4.4140625 17.41015625 C4.02347656 15.75306641 4.02347656 15.75306641 3.625 14.0625 C3.36976562 12.96035156 3.11453125 11.85820313 2.8515625 10.72265625 C2.57054687 9.82417969 2.28953125 8.92570312 2 8 C1.34 7.67 0.68 7.34 0 7 C0 4.69 0 2.38 0 0 Z " fill="#794E31" transform="translate(60,93)"/>
<path d="M0 0 C1.63290887 5.60922893 0.94722318 10.26886798 -1.8125 15.3125 C-4 18 -4 18 -6.0625 19.3125 C-9.26618915 22.1028099 -9.88322843 26.00208995 -11 30 C-11.20753906 30.70769531 -11.41507812 31.41539063 -11.62890625 32.14453125 C-12.09917338 33.75922469 -12.55166074 35.37908112 -13 37 C-13.99 37 -14.98 37 -16 37 C-17.485 31.555 -17.485 31.555 -19 26 C-16.78645833 24.30729167 -14.57291667 22.61458333 -12.359375 20.921875 C-9.95085226 19.03568944 -9.95085226 19.03568944 -7.828125 16.765625 C-6 15 -6 15 -4 15 C-3.8453125 13.515 -3.8453125 13.515 -3.6875 12 C-3.09191294 7.71702837 -1.61404973 4.00003629 0 0 Z " fill="#AB8667" transform="translate(86,70)"/>
<path d="M0 0 C0.66 0.33 1.32 0.66 2 1 C-0.75382625 4.87575546 -2.64898003 6.30204099 -7 8 C-9.7295585 10.47906969 -9.7295585 10.47906969 -12 13 C-13 14 -13 14 -16.0625 14.0625 C-17.031875 14.041875 -18.00125 14.02125 -19 14 C-18.67 12.68 -18.34 11.36 -18 10 C-22.33273814 9.07155611 -25.66726186 9.07155611 -30 10 C-29 8 -29 8 -26.55078125 7.03515625 C-19.34121984 4.86967882 -12.18121037 3.08279939 -4.80078125 1.61328125 C-2.06335537 1.13398813 -2.06335537 1.13398813 0 0 Z " fill="#8B5935" transform="translate(62,29)"/>
<path d="M0 0 C0 3.63 0 7.26 0 11 C-1.10859375 11.20496094 -2.2171875 11.40992188 -3.359375 11.62109375 C-4.82292867 11.89316462 -6.28646967 12.16530362 -7.75 12.4375 C-8.47960938 12.57220703 -9.20921875 12.70691406 -9.9609375 12.84570312 C-13.33546675 13.47459267 -16.67634694 14.14322173 -20 15 C-19.1875 13.0625 -19.1875 13.0625 -18 11 C-17.01 10.67 -16.02 10.34 -15 10 C-14.67 9.34 -14.34 8.68 -14 8 C-14.66 8 -15.32 8 -16 8 C-15.67 5.69 -15.34 3.38 -15 1 C-14.01 1 -13.02 1 -12 1 C-12.33 2.65 -12.66 4.3 -13 6 C-8.02175896 5.64441135 -3.61661794 0 0 0 Z " fill="#F6CCBF" transform="translate(40,14)"/>
<path d="M0 0 C0.33 0.66 0.66 1.32 1 2 C2.32 1.34 3.64 0.68 5 0 C3.49098196 3.77254509 3.49098196 3.77254509 1.0859375 4.88671875 C-1.4294166 6.22918302 -2.21138514 7.48875426 -3.625 9.9375 C-4.02976562 10.62714844 -4.43453125 11.31679688 -4.8515625 12.02734375 C-5.23054687 12.67832031 -5.60953125 13.32929687 -6 14 C-8.32835924 17.49253886 -10.74274862 19.38003693 -14 22 C-16.70582788 18.16674383 -17.32613618 15.67461851 -17 11 C-16.113125 10.71125 -15.22625 10.4225 -14.3125 10.125 C-12.6728125 9.568125 -12.6728125 9.568125 -11 9 C-10.154375 8.731875 -9.30875 8.46375 -8.4375 8.1875 C-4.73521778 6.38382404 -1.85082001 3.70164002 0 0 Z " fill="#9C7C36" transform="translate(21,22)"/>
<path d="M0 0 C0.33 0 0.66 0 1 0 C2 7.625 2 7.625 2 11 C-0.32638157 13.06789473 -2.76775857 14.83680332 -5.3125 16.625 C-6.1478125 17.305625 -6.1478125 17.305625 -7 18 C-7 18.66 -7 19.32 -7 20 C-6.34 20.33 -5.68 20.66 -5 21 C-5 21.66 -5 22.32 -5 23 C-7.94563014 22.6815535 -9.61076606 22.33733608 -11.875 20.375 C-13.49874379 16.94709644 -12.8574841 14.62781733 -12 11 C-11.34 10.01 -10.68 9.02 -10 8 C-9.34 8 -8.68 8 -8 8 C-8 9.98 -8 11.96 -8 14 C-3.36231469 10.3561044 -1.92630075 5.36905103 0 0 Z " fill="#969593" transform="translate(151,79)"/>
<path d="M0 0 C0.99 0.33 1.98 0.66 3 1 C-2.26931206 6.52281468 -7.10664356 8.27052716 -14.5 9.6875 C-22.00174954 11.22074301 -28.54014164 12.69342776 -35 17 C-37.6875 17.125 -37.6875 17.125 -40 17 C-39.67 15.68 -39.34 14.36 -39 13 C-39 13.66 -39 14.32 -39 15 C-35.77428407 13.53376549 -33.35054113 12.3824085 -30.9375 9.75 C-30.298125 9.1725 -29.65875 8.595 -29 8 C-26.3125 8.3125 -26.3125 8.3125 -24 9 C-23.67 8.67 -23.34 8.34 -23 8 C-20.83786072 7.56044421 -18.67003242 7.14876664 -16.5 6.75 C-10.86721826 5.60162452 -6.54459399 4.0679134 -1.76953125 0.890625 C-1.18558594 0.59671875 -0.60164063 0.3028125 0 0 Z " fill="#B57860" transform="translate(64,24)"/>
<path d="M0 0 C0.33 0.66 0.66 1.32 1 2 C0.61328125 2.54527344 0.2265625 3.09054688 -0.171875 3.65234375 C-2.88864865 7.5862858 -5.21641298 11.27818002 -6.9375 15.75 C-8.90873197 20.53967426 -11.60483925 22.37980801 -16 25 C-16.5493491 21.31151319 -16.64800789 19.12280613 -14.7578125 15.84765625 C-10.36075862 10.08285519 -5.22394049 5.01071843 0 0 Z " fill="#97673E" transform="translate(71,37)"/>
<path d="M0 0 C1.875 1.1875 1.875 1.1875 3 3 C3.1875 5.6875 3.1875 5.6875 3 8 C-1.455 9.485 -1.455 9.485 -6 11 C-9 8 -9 8 -9.375 5.5 C-9 3 -9 3 -7.875 1.1875 C-5.12844028 -0.55198782 -3.18153026 -0.39769128 0 0 Z " fill="#312722" transform="translate(50,9)"/>
<path d="M0 0 C0.33 0 0.66 0 1 0 C1 2.31 1 4.62 1 7 C-7.40112712 11.42968521 -15.70403081 14.1300178 -25 16 C-26.010625 16.20625 -27.02125 16.4125 -28.0625 16.625 C-28.701875 16.74875 -29.34125 16.8725 -30 17 C-30 16.01 -30 15.02 -30 14 C-25.81724732 12.20739171 -22.45504581 10.78718962 -17.875 10.9375 C-13.93323779 11.00107681 -11.54158547 10.69030216 -8 9 C-6.63755204 7.35704805 -5.30135125 5.69175663 -4 4 C-1.75 3.1875 -1.75 3.1875 0 3 C0 2.01 0 1.02 0 0 Z " fill="#C58D79" transform="translate(66,17)"/>
<path d="M0 0 C0.8971875 0.309375 0.8971875 0.309375 1.8125 0.625 C0.8225 0.625 -0.1675 0.625 -1.1875 0.625 C-1.455625 1.264375 -1.72375 1.90375 -2 2.5625 C-3.1875 4.625 -3.1875 4.625 -6.1875 5.625 C-6.1875 6.945 -6.1875 8.265 -6.1875 9.625 C-5.32125 8.8515625 -5.32125 8.8515625 -4.4375 8.0625 C-2.1875 6.625 -2.1875 6.625 0.0625 6.9375 C0.64 7.164375 1.2175 7.39125 1.8125 7.625 C1.173125 7.728125 0.53375 7.83125 -0.125 7.9375 C-0.805625 8.164375 -1.48625 8.39125 -2.1875 8.625 C-2.5175 9.615 -2.8475 10.605 -3.1875 11.625 C-2.1975 12.285 -1.2075 12.945 -0.1875 13.625 C-2.1675 13.625 -4.1475 13.625 -6.1875 13.625 C-6.1875 14.285 -6.1875 14.945 -6.1875 15.625 C-10.00847239 15.09430939 -12.24921403 14.12798434 -15.1875 11.625 C-14.8575 10.635 -14.5275 9.645 -14.1875 8.625 C-12.5375 8.625 -10.8875 8.625 -9.1875 8.625 C-8.589375 7.51125 -7.99125 6.3975 -7.375 5.25 C-5.65170652 2.0411087 -4.08208022 -0.69978518 0 0 Z " fill="#D9D6D3" transform="translate(136.1875,56.375)"/>
<path d="M0 0 C2.6875 -0.3125 2.6875 -0.3125 5 0 C2 2 2 2 0 2 C0 2.99 0 3.98 0 5 C1.65 4.67 3.3 4.34 5 4 C4.67 5.98 4.34 7.96 4 10 C3.34 9.34 2.68 8.68 2 8 C1.01 8.33 0.02 8.66 -1 9 C-1.33 9.99 -1.66 10.98 -2 12 C-4.68264684 13.45007937 -6.27331661 14.11784055 -9.3125 13.625 C-9.869375 13.41875 -10.42625 13.2125 -11 13 C-10.34 11.35 -9.68 9.7 -9 8 C-9.66 7.67 -10.32 7.34 -11 7 C-9.1128125 6.6596875 -9.1128125 6.6596875 -7.1875 6.3125 C-3.54896277 5.45409587 -3.54896277 5.45409587 -1.3125 2.375 C-0.879375 1.59125 -0.44625 0.8075 0 0 Z " fill="#F4C7B8" transform="translate(37,7)"/>
<path d="M0 0 C5.92360616 0.56415297 9.81346034 2.81346034 14 7 C14.22705078 8.87939453 14.22705078 8.87939453 14.1953125 11.1328125 C14.18564453 12.34130859 14.18564453 12.34130859 14.17578125 13.57421875 C14.15902344 14.41597656 14.14226562 15.25773437 14.125 16.125 C14.11597656 16.97449219 14.10695312 17.82398437 14.09765625 18.69921875 C14.07405647 20.79959884 14.03818483 22.89983444 14 25 C13.01 25 12.02 25 11 25 C10.34 23.68 9.68 22.36 9 21 C8.01 21 7.02 21 6 21 C5.34 20.67 4.68 20.34 4 20 C4 19.34 4 18.68 4 18 C4.99 17.34 5.98 16.68 7 16 C7.66 15.01 8.32 14.02 9 13 C9.66 14.32 10.32 15.64 11 17 C11.66 17 12.32 17 13 17 C12.92939573 10.78588597 12.92939573 10.78588597 9.875 5.625 C6.64162829 3.79744208 3.45737818 2.35583458 0 1 C0 0.67 0 0.34 0 0 Z " fill="#D4D1CE" transform="translate(142,57)"/>
<path d="M0 0 C1.32 0.33 2.64 0.66 4 1 C4 1.99 4 2.98 4 4 C2.56465159 4.2226746 1.12654475 4.42761906 -0.3125 4.625 C-1.11300781 4.74101562 -1.91351563 4.85703125 -2.73828125 4.9765625 C-5 5 -5 5 -8 3 C-11.5280707 3.20753357 -14.34440559 4.58953982 -17.5 6.0625 C-20.8210103 7.59825935 -23.27622202 8.48048748 -27 8 C-26.32421875 5.58203125 -26.32421875 5.58203125 -25 3 C-22.64453125 2.07421875 -22.64453125 2.07421875 -19.8125 1.6875 C-18.32943359 1.48447266 -18.32943359 1.48447266 -16.81640625 1.27734375 C-10.60686911 0.66586367 -5.87191967 1.08263847 0 3 C0 2.01 0 1.02 0 0 Z " fill="#9A4404" transform="translate(97,152)"/>
<path d="M0 0 C2.16070464 2.16070464 3.43303362 4.38838937 5 7 C5.66 7.66 6.32 8.32 7 9 C7.99 9 8.98 9 10 9 C10.103125 9.7425 10.20625 10.485 10.3125 11.25 C11.04253504 14.17014018 12.06789398 15.73187554 14 18 C10.18510326 19.46726798 7.70988378 18.43336419 4 17 C4.66 16.67 5.32 16.34 6 16 C5.45388137 12.17716957 3.76181385 10.58920048 1 8 C-0.35439668 5.29120665 -0.06501451 2.99066732 0 0 Z " fill="#70401E" transform="translate(66,109)"/>
<path d="M0 0 C0.70382813 0.50789062 1.40765625 1.01578125 2.1328125 1.5390625 C2.1328125 1.8690625 2.1328125 2.1990625 2.1328125 2.5390625 C-0.1932732 2.91969471 -2.52774014 3.25176195 -4.8671875 3.5390625 C-5.1971875 3.2090625 -5.5271875 2.8790625 -5.8671875 2.5390625 C-7.86709266 2.33916487 -7.86709266 2.33916487 -10.1796875 2.3515625 C-10.95957031 2.33738281 -11.73945312 2.32320312 -12.54296875 2.30859375 C-15.08649966 2.56080942 -16.6225383 3.3681424 -18.8671875 4.5390625 C-19.8571875 4.5390625 -20.8471875 4.5390625 -21.8671875 4.5390625 C-21.8671875 3.5490625 -21.8671875 2.5590625 -21.8671875 1.5390625 C-15.2220395 -2.08556368 -6.97150068 -3.55223604 0 0 Z " fill="#FAD9CB" transform="translate(58.8671875,7.4609375)"/>
<path d="M0 0 C8.57142857 -0.28571429 8.57142857 -0.28571429 12 2 C12 2.66 12 3.32 12 4 C12.66 4 13.32 4 14 4 C14 4.66 14 5.32 14 6 C13.34 6 12.68 6 12 6 C12 7.65 12 9.3 12 11 C11.34 10.01 10.68 9.02 10 8 C9.01 8.495 9.01 8.495 8 9 C7.608125 8.360625 7.21625 7.72125 6.8125 7.0625 C4.61527704 4.56221181 3.24208567 4.35049575 0 4 C0 2.68 0 1.36 0 0 Z " fill="#94928F" transform="translate(130,70)"/>
<path d="M0 0 C0.33 0.99 0.66 1.98 1 3 C1.66 2.34 2.32 1.68 3 1 C6.5919305 -0.33034463 10.21470013 -0.07279423 14 0 C11.32014582 2.67985418 8.57568087 3.16491955 4.99609375 4.21875 C2.81272599 4.81628991 2.81272599 4.81628991 2 7 C-0.97 6.67 -3.94 6.34 -7 6 C-6.625 3.5625 -6.625 3.5625 -6 1 C-4 0 -4 0 0 0 Z " fill="#A64A04" transform="translate(55,147)"/>
<path d="M0 0 C0.91007812 0.00902344 1.82015625 0.01804688 2.7578125 0.02734375 C3.45648438 0.03894531 4.15515625 0.05054687 4.875 0.0625 C3.885 1.5475 3.885 1.5475 2.875 3.0625 C4.525 3.3925 6.175 3.7225 7.875 4.0625 C7.875 4.3925 7.875 4.7225 7.875 5.0625 C1.935 5.3925 -4.005 5.7225 -10.125 6.0625 C-6.60514157 0.19606929 -6.25472027 -0.08018872 0 0 Z " fill="#AF7F56" transform="translate(47.125,0.9375)"/>
<path d="M0 0 C0.99 0 1.98 0 3 0 C3.33 0.99 3.66 1.98 4 3 C3.67 3.66 3.34 4.32 3 5 C3.99 5 4.98 5 6 5 C5.67 5.66 5.34 6.32 5 7 C4.01 6.67 3.02 6.34 2 6 C2.0825 6.70125 2.165 7.4025 2.25 8.125 C1.917484 11.94893399 0.30534909 13.99606028 -2 17 C-2.33 17 -2.66 17 -3 17 C-3.3540919 10.48208608 -3.03901852 5.82478551 0 0 Z " fill="#774622" transform="translate(103,109)"/>
<path d="M0 0 C-1.134375 0.35191406 -2.26875 0.70382813 -3.4375 1.06640625 C-14.516861 4.57135335 -14.516861 4.57135335 -23.5546875 11.6796875 C-25 13 -25 13 -28 13 C-27.90234375 11.22265625 -27.90234375 11.22265625 -27 9 C-24.84209555 7.60441506 -22.87265322 6.51134738 -20.5625 5.4375 C-19.93303467 5.13521484 -19.30356934 4.83292969 -18.6550293 4.52148438 C-5.26584393 -1.75528131 -5.26584393 -1.75528131 0 0 Z " fill="#DFAE9E" transform="translate(53,26)"/>
<path d="M0 0 C3 1 3 1 4 3 C4.34897405 8.35093543 4.34897405 8.35093543 2.99609375 10.8671875 C1.77466173 13.482489 1.79945066 15.37912491 1.875 18.25 C1.89304688 19.14203125 1.91109375 20.0340625 1.9296875 20.953125 C1.95289063 21.62859375 1.97609375 22.3040625 2 23 C1.34 23 0.68 23 0 23 C-0.66 23.66 -1.32 24.32 -2 25 C-2.29489137 20.28173805 -2.35517 16.32199094 -0.4375 11.9375 C1.41846706 7.6271466 0.89438975 4.55325691 0 0 Z " fill="#94653F" transform="translate(61,71)"/>
<path d="M0 0 C0.33 0.66 0.66 1.32 1 2 C-1.20679887 8.50424929 -1.20679887 8.50424929 -4 10.25 C-4.66 10.4975 -5.32 10.745 -6 11 C-7.70921589 12.5412312 -7.70921589 12.5412312 -9 14 C-11.1519437 10.77208445 -11.20086443 9.71599191 -11 6 C-10.37351562 5.81824219 -9.74703125 5.63648438 -9.1015625 5.44921875 C-7.87566406 5.07216797 -7.87566406 5.07216797 -6.625 4.6875 C-5.81289062 4.44386719 -5.00078125 4.20023438 -4.1640625 3.94921875 C-1.66815371 3.08631815 -1.66815371 3.08631815 0 0 Z " fill="#926F29" transform="translate(16,30)"/>
<path d="M0 0 C0.33 0 0.66 0 1 0 C2.11832327 6.06319847 2.23641134 9.5229962 -1 15 C-1.69907414 17.73572585 -1.69907414 17.73572585 -2 20 C-2.66 19.67 -3.32 19.34 -4 19 C-3.67 13.72 -3.34 8.44 -3 3 C-2.34 3 -1.68 3 -1 3 C-0.67 2.01 -0.34 1.02 0 0 Z " fill="#8E6645" transform="translate(140,77)"/>
<path d="M0 0 C4.29 0.33 8.58 0.66 13 1 C13 2.65 13 4.3 13 6 C10.03 6 7.06 6 4 6 C3.67 5.01 3.34 4.02 3 3 C2.01 2.67 1.02 2.34 0 2 C0 1.34 0 0.68 0 0 Z " fill="#C8C1BC" transform="translate(80,108)"/>
<path d="M0 0 C1.47290575 2.9458115 0.52363681 4.84477536 -0.25 8 C-0.62898438 9.60875 -0.62898438 9.60875 -1.015625 11.25 C-2 14 -2 14 -5 16 C-7 13 -7 13 -7 9 C-6.01 8.67 -5.02 8.34 -4 8 C-4.0825 7.236875 -4.165 6.47375 -4.25 5.6875 C-4 3 -4 3 -2 1.1875 C-1.34 0.795625 -0.68 0.40375 0 0 Z " fill="#BDA089" transform="translate(76,92)"/>
<path d="M0 0 C-0.33 0.99 -0.66 1.98 -1 3 C-3.71086055 4.11222397 -6.33898771 5.05930047 -9.125 5.9375 C-13.63260817 7.37915744 -17.81419603 8.77328785 -21.8671875 11.25390625 C-22.90101562 11.83011719 -23.93484375 12.40632813 -25 13 C-25.99 12.67 -26.98 12.34 -28 12 C-25.48043257 10.72660518 -22.95941351 9.45623358 -20.4375 8.1875 C-19.73302734 7.83107422 -19.02855469 7.47464844 -18.30273438 7.10742188 C-13.92540912 4.90867324 -9.51629045 2.89650028 -5 1 C-3 0 -3 0 0 0 Z " fill="#D39989" transform="translate(53,22)"/>
<path d="M0 0 C4.02779388 1.34259796 4.93053548 3.38993351 7.05859375 6.921875 C8 9 8 9 7.8125 12 C7.544375 12.66 7.27625 13.32 7 14 C5 13 5 13 4 10 C3.34 10.66 2.68 11.32 2 12 C1.66430703 10.37548581 1.3315204 8.75037083 1 7.125 C0.814375 6.22007813 0.62875 5.31515625 0.4375 4.3828125 C0 2 0 2 0 0 Z " fill="#8A5932" transform="translate(63,101)"/>
<path d="M0 0 C2.97 0.495 2.97 0.495 6 1 C6 3.97 6 6.94 6 10 C4.02 10.99 4.02 10.99 2 12 C-0.60018816 8.09971775 -0.15085514 4.52565431 0 0 Z " fill="#AFAEAB" transform="translate(141,81)"/>
<path d="M0 0 C0 0.99 0 1.98 0 3 C-4.62197306 5.21854707 -7.76824163 6.38281159 -13 6 C-12 3 -12 3 -9.875 1.3125 C-6.39918304 -0.274286 -3.77907627 -0.2222986 0 0 Z " fill="#F4CDBD" transform="translate(55,18)"/>
<path d="M0 0 C-0.66 1.65 -1.32 3.3 -2 5 C-1.01 5.33 -0.02 5.66 1 6 C-0.65 6.66 -2.3 7.32 -4 8 C-4 7.01 -4 6.02 -4 5 C-4.33 5.33 -4.66 5.66 -5 6 C-6.99958364 6.04080783 -9.00045254 6.04254356 -11 6 C-11 4.68 -11 3.36 -11 2 C-9.54494642 1.47007308 -8.08581873 0.9513211 -6.625 0.4375 C-5.81289063 0.14746094 -5.00078125 -0.14257812 -4.1640625 -0.44140625 C-2 -1 -2 -1 0 0 Z " fill="#905F31" transform="translate(26,36)"/>
<path d="M0 0 C-3.88672813 3.18005028 -7.89952133 6.10554447 -12 9 C-12.609375 7.13671875 -12.609375 7.13671875 -13 5 C-9.1991183 0.24889787 -5.86141731 -0.13025372 0 0 Z " fill="#65381D" transform="translate(59,32)"/>
<path d="M0 0 C0.68707555 2.49064888 1 4.37886292 1 7 C0.34 7 -0.32 7 -1 7 C-1 6.01 -1 5.02 -1 4 C-7.06264222 4.66264086 -7.06264222 4.66264086 -13 6 C-11.25 2.125 -11.25 2.125 -9 1 C-7.46331135 0.77532169 -5.92031946 0.59203195 -4.375 0.4375 C-3.55773438 0.35371094 -2.74046875 0.26992188 -1.8984375 0.18359375 C-0.95871094 0.09271484 -0.95871094 0.09271484 0 0 Z " fill="#DEC36F" transform="translate(24,16)"/>
<path d="M0 0 C1.20267231 4.1313171 1.04713837 7.84342022 0 12 C-2.06079461 15.7094303 -3.46570083 17.64380056 -7 20 C-6.67 18.35 -6.34 16.7 -6 15 C-5.34 15 -4.68 15 -4 15 C-3.896875 14.01 -3.79375 13.02 -3.6875 12 C-3.09191294 7.71702837 -1.61404973 4.00003629 0 0 Z " fill="#C09D7C" transform="translate(86,70)"/>
<path d="M0 0 C0 0.66 0 1.32 0 2 C-0.60328125 2.02578125 -1.2065625 2.0515625 -1.828125 2.078125 C-7.10535339 2.40331983 -7.10535339 2.40331983 -11.5625 5.0625 C-12.036875 5.701875 -12.51125 6.34125 -13 7 C-12.34 7.33 -11.68 7.66 -11 8 C-13.475 9.485 -13.475 9.485 -16 11 C-16.33 10.01 -16.66 9.02 -17 8 C-15.28836985 4.77423548 -13.89482792 2.54683928 -10.75 0.625 C-7.07389237 -0.21047901 -3.76782097 -0.12772274 0 0 Z " fill="#C9A651" transform="translate(24,15)"/>
<path d="M0 0 C1.11375 0.556875 1.11375 0.556875 2.25 1.125 C2.25 2.115 2.25 3.105 2.25 4.125 C-0.72 4.785 -3.69 5.445 -6.75 6.125 C-6.75 4.475 -6.75 2.825 -6.75 1.125 C-4.02098495 -0.69434337 -3.21400584 -1.02263822 0 0 Z " fill="#EDE4DD" transform="translate(87.75,91.875)"/>
<path d="M0 0 C0 0.99 0 1.98 0 3 C-2.26216255 4.54779543 -4.55224566 5.77612283 -7 7 C-6.34 7.66 -5.68 8.32 -5 9 C-6.98 9.33 -8.96 9.66 -11 10 C-10.65415128 7.4407195 -10.31949609 5.47924414 -8.875 3.3125 C-6.13491295 1.39443906 -3.21971995 0.78974263 0 0 Z " fill="#DAA493" transform="translate(25,29)"/>
<path d="M0 0 C3 2 3 2 3.51171875 3.9453125 C3.67447917 5.96354167 3.83723958 7.98177083 4 10 C4.66 10 5.32 10 6 10 C5.67 10.99 5.34 11.98 5 13 C2.48916886 11.74458443 2.12874554 10.49936512 1 8 C0.01 8 -0.98 8 -2 8 C-2.66 7.67 -3.32 7.34 -4 7 C-4 6.34 -4 5.68 -4 5 C-3.01 4.34 -2.02 3.68 -1 3 C-0.67 2.01 -0.34 1.02 0 0 Z " fill="#C8C6C3" transform="translate(150,70)"/>
<path d="M0 0 C0 0.66 0 1.32 0 2 C-1.57925975 2.39180108 -3.16368794 2.76280736 -4.75 3.125 C-5.63171875 3.33382812 -6.5134375 3.54265625 -7.421875 3.7578125 C-10.32875493 4.03088304 -11.56661348 3.53508028 -14 2 C-13.01 1.67 -12.02 1.34 -11 1 C-11 0.34 -11 -0.32 -11 -1 C-6.72305054 -2.37473375 -4.16065329 -1.38688443 0 0 Z " fill="#B0570F" transform="translate(81,150)"/>
<path d="M0 0 C0 0.66 0 1.32 0 2 C-2.88211302 2.96070434 -4.69850044 3.10581883 -7.6875 3.0625 C-8.89986328 3.04896484 -8.89986328 3.04896484 -10.13671875 3.03515625 C-11.05904297 3.01775391 -11.05904297 3.01775391 -12 3 C-11.67 2.01 -11.34 1.02 -11 0 C-6.62696851 -2.08712867 -4.2911561 -2.27178852 0 0 Z " fill="#F3EEEA" transform="translate(95,99)"/>
<path d="M0 0 C-0.45375 0.433125 -0.9075 0.86625 -1.375 1.3125 C-3.20024334 3.10798342 -3.20024334 3.10798342 -5 6 C-5.99 5.34 -6.98 4.68 -8 4 C-10.5254223 3.9744911 -10.5254223 3.9744911 -13.1875 4.375 C-14.08855469 4.48585938 -14.98960938 4.59671875 -15.91796875 4.7109375 C-16.60503906 4.80632813 -17.29210938 4.90171875 -18 5 C-17 3 -17 3 -14.19921875 1.89453125 C-12.46091797 1.35892578 -12.46091797 1.35892578 -10.6875 0.8125 C-9.53636719 0.44769531 -8.38523437 0.08289062 -7.19921875 -0.29296875 C-4.20460307 -0.95478247 -2.80251881 -1.08640853 0 0 Z " fill="#9C5738" transform="translate(50,34)"/>
<path d="M0 0 C1.32 0.33 2.64 0.66 4 1 C4 2.65 4 4.3 4 6 C2.02 6.66 0.04 7.32 -2 8 C-2.33 7.01 -2.66 6.02 -3 5 C-1.5625 2.3125 -1.5625 2.3125 0 0 Z " fill="#39261F" transform="translate(59,150)"/>
<path d="M0 0 C1.32 0.33 2.64 0.66 4 1 C4 1.99 4 2.98 4 4 C2.56465159 4.2226746 1.12654475 4.42761906 -0.3125 4.625 C-1.11300781 4.74101562 -1.91351563 4.85703125 -2.73828125 4.9765625 C-5 5 -5 5 -8 3 C-11.14221967 3.31506627 -11.14221967 3.31506627 -14 4 C-14 3.01 -14 2.02 -14 1 C-8.80790596 0.78807779 -4.873261 1.4087311 0 3 C0 2.01 0 1.02 0 0 Z " fill="#73380F" transform="translate(97,152)"/>
<path d="M0 0 C0.66 0 1.32 0 2 0 C-0.07963756 4.84198441 -3.46764621 7.44956398 -8 10 C-10.7737685 10.7287019 -13.1091259 10.8967545 -16 11 C-15.34 10.01 -14.68 9.02 -14 8 C-12.906875 7.87625 -11.81375 7.7525 -10.6875 7.625 C-6.20263927 6.86485411 -4.89976526 5.39686787 -2 2 C-1.34 1.34 -0.68 0.68 0 0 Z " fill="#9D6B41" transform="translate(56,35)"/>
<path d="M0 0 C0.06574219 0.62777344 0.13148437 1.25554687 0.19921875 1.90234375 C0.46347656 2.59457031 0.72773437 3.28679687 1 4 C3.18239871 5.03641574 3.18239871 5.03641574 5.8125 5.5625 C9.57716906 6.45779057 12.02502697 7.49658447 15 10 C5.13840915 9.81002189 5.13840915 9.81002189 0.75 6.6875 C-1 4 -1 4 -0.8125 1.6875 C-0.4103125 0.8521875 -0.4103125 0.8521875 0 0 Z " fill="#CBBEB3" transform="translate(75,100)"/>
<path d="M0 0 C0.33 0.99 0.66 1.98 1 3 C0.030625 3.45375 -0.93875 3.9075 -1.9375 4.375 C-5.07079582 5.65786221 -5.07079582 5.65786221 -6 8 C-4.35 8 -2.7 8 -1 8 C-1.33 8.66 -1.66 9.32 -2 10 C-5.0625 10.625 -5.0625 10.625 -8 11 C-8 7 -8 7 -7 5 C-7.66 4.67 -8.32 4.34 -9 4 C-8.43410156 3.87882813 -7.86820313 3.75765625 -7.28515625 3.6328125 C-6.18494141 3.38144531 -6.18494141 3.38144531 -5.0625 3.125 C-4.33160156 2.96257813 -3.60070312 2.80015625 -2.84765625 2.6328125 C-0.79299706 2.17038477 -0.79299706 2.17038477 0 0 Z " fill="#E9B8A9" transform="translate(35,10)"/>
<path d="M0 0 C6.52307692 0.61538462 6.52307692 0.61538462 8.9375 2.5625 C9.288125 3.036875 9.63875 3.51125 10 4 C7.6739143 4.38063221 5.33944736 4.71269945 3 5 C2.67 4.67 2.34 4.34 2 4 C0.65252916 3.76924918 -0.70377565 3.58846937 -2.0625 3.4375 C-3.361875 3.293125 -4.66125 3.14875 -6 3 C-6 2.67 -6 2.34 -6 2 C-4.02 2 -2.04 2 0 2 C0 1.34 0 0.68 0 0 Z " fill="#F6CCBF" transform="translate(51,6)"/>
<path d="M0 0 C3.96 0 7.92 0 12 0 C12 0.66 12 1.32 12 2 C14.97 2.495 14.97 2.495 18 3 C18 3.66 18 4.32 18 5 C18.66 5.33 19.32 5.66 20 6 C19.01 6.33 18.02 6.66 17 7 C15.2734375 6.0390625 15.2734375 6.0390625 13.375 4.625 C9.01140917 1.69701433 5.18147445 1.13193569 0 1 C0 0.67 0 0.34 0 0 Z " fill="#905E36" transform="translate(46,4)"/>
<path d="M0 0 C0.33 0.99 0.66 1.98 1 3 C-7.19256018 3.4726477 -7.19256018 3.4726477 -10.5625 1.5 C-11.036875 1.005 -11.51125 0.51 -12 0 C-7.6835078 -0.76173392 -4.25566547 -1.16063604 0 0 Z " fill="#F1ECE7" transform="translate(96,105)"/>
<path d="M0 0 C0.125 2.875 0.125 2.875 0 6 C-0.66 6.66 -1.32 7.32 -2 8 C-3.32 8 -4.64 8 -6 8 C-5.75 5.125 -5.75 5.125 -5 2 C-2.09090909 0 -2.09090909 0 0 0 Z " fill="#E1D6CB" transform="translate(90,82)"/>
<path d="M0 0 C1.65 0 3.3 0 5 0 C5.33 0.99 5.66 1.98 6 3 C5.67 3.66 5.34 4.32 5 5 C3.02 5 1.04 5 -1 5 C-0.67 3.35 -0.34 1.7 0 0 Z " fill="#9C4F16" transform="translate(72,138)"/>
<path d="M0 0 C0.042721 1.66611905 0.04063832 3.33382885 0 5 C-1 6 -1 6 -3.5625 6.0625 C-4.7690625 6.0315625 -4.7690625 6.0315625 -6 6 C-5.625 3.5625 -5.625 3.5625 -5 1 C-3 0 -3 0 0 0 Z " fill="#3C241A" transform="translate(54,147)"/>
<path d="M0 0 C2 2 2 2 2.125 4.625 C2.08375 5.40875 2.0425 6.1925 2 7 C1.443125 6.360625 0.88625 5.72125 0.3125 5.0625 C-2.22066561 2.80319013 -3.68341424 2.36850953 -7 2 C-7 1.34 -7 0.68 -7 0 C-4.29393021 -1.35303489 -2.8671629 -0.7884698 0 0 Z " fill="#B8B7B5" transform="translate(137,72)"/>
<path d="M0 0 C0.33 0.66 0.66 1.32 1 2 C5.64586892 1.51515724 5.64586892 1.51515724 10 0 C9.125 3.875 9.125 3.875 8 5 C5.0625 5.1875 5.0625 5.1875 2 5 C1.34 4.34 0.68 3.68 0 3 C0 2.01 0 1.02 0 0 Z " fill="#644413" transform="translate(13,40)"/>
<path d="M0 0 C0.33 0 0.66 0 1 0 C1.375 2.75 1.375 2.75 1 6 C-2.10139366 8.60799012 -4.96352819 10.37900434 -9 11 C-9 10.34 -9 9.68 -9 9 C-8.01 9 -7.02 9 -6 9 C-6 8.34 -6 7.68 -6 7 C-5.34 7 -4.68 7 -4 7 C-3.67 6.01 -3.34 5.02 -3 4 C-2.01 4 -1.02 4 0 4 C0 2.68 0 1.36 0 0 Z " fill="#DFAC9A" transform="translate(65,14)"/>
<path d="M0 0 C-0.3125 1.875 -0.3125 1.875 -1 4 C-1.99 4.66 -2.98 5.32 -4 6 C-4.99 5.67 -5.98 5.34 -7 5 C-5.22678182 1.07358831 -4.52021524 0 0 0 Z " fill="#372720" transform="translate(72,154)"/>
<path d="M0 0 C1.4391134 0.28359887 2.87625518 0.57721399 4.3125 0.875 C5.11300781 1.03742188 5.91351563 1.19984375 6.73828125 1.3671875 C9 2 9 2 12 4 C10.5629191 4.05422947 9.12524538 4.09289723 7.6875 4.125 C6.88699219 4.14820312 6.08648437 4.17140625 5.26171875 4.1953125 C3 4 3 4 0 2 C0 1.34 0 0.68 0 0 Z " fill="#E1D9D2" transform="translate(80,108)"/>
<path d="M0 0 C0.99 0.33 1.98 0.66 3 1 C3 2.65 3 4.3 3 6 C0.36 5.67 -2.28 5.34 -5 5 C-3.35 3.35 -1.7 1.7 0 0 Z " fill="#211915" transform="translate(50,11)"/>
<path d="M0 0 C-0.66 1.32 -1.32 2.64 -2 4 C-4.31 3.34 -6.62 2.68 -9 2 C-6.98558063 -2.02883874 -3.72407517 -0.90585612 0 0 Z " fill="#9D4D12" transform="translate(93,138)"/>
<path d="M0 0 C1.65 0.99 3.3 1.98 5 3 C4.67 3.66 4.34 4.32 4 5 C1.4375 5.625 1.4375 5.625 -1 6 C-1 5.34 -1 4.68 -1 4 C-1.66 4 -2.32 4 -3 4 C-3 3.34 -3 2.68 -3 2 C-2.01 2 -1.02 2 0 2 C0 1.34 0 0.68 0 0 Z " fill="#734829" transform="translate(82,112)"/>
<path d="M0 0 C1.33333333 0 2.66666667 0 4 0 C4.33 2.97 4.66 5.94 5 9 C3.68 8.34 2.36 7.68 1 7 C0.25 3.375 0.25 3.375 0 0 Z " fill="#83807C" transform="translate(138,92)"/>
<path d="M0 0 C1.32 0.66 2.64 1.32 4 2 C3.25 6.75 3.25 6.75 1 9 C0.67 7.02 0.34 5.04 0 3 C-0.99 2.67 -1.98 2.34 -3 2 C-2.01 1.34 -1.02 0.68 0 0 Z " fill="#A1A09E" transform="translate(146,80)"/>
<path d="M0 0 C2.54926402 1.27463201 2.86801636 2.43417043 4 5 C4.33 5.99 4.66 6.98 5 8 C4.02149805 9.02104551 3.02019573 10.0206121 2 11 C1.67 11 1.34 11 1 11 C0.67 7.37 0.34 3.74 0 0 Z " fill="#ACAAA8" transform="translate(151,77)"/>
<path d="M0 0 C0.33 0 0.66 0 1 0 C1 2.31 1 4.62 1 7 C-0.423125 7.2165625 -0.423125 7.2165625 -1.875 7.4375 C-4.8934494 7.82935399 -4.8934494 7.82935399 -7 9 C-5.9024777 6.00675737 -5.32317108 5.15389099 -2.375 3.75 C-1.59125 3.5025 -0.8075 3.255 0 3 C0 2.01 0 1.02 0 0 Z " fill="#CD947F" transform="translate(66,17)"/>
<path d="M0 0 C1 3 1 3 1 7 C-0.98 7.99 -2.96 8.98 -5 10 C-3.66511872 6.40608886 -2.03977277 3.24509304 0 0 Z " fill="#7C7B7A" transform="translate(149,86)"/>
<path d="M0 0 C0 2.64 0 5.28 0 8 C-0.99 8 -1.98 8 -3 8 C-3 5.69 -3 3.38 -3 1 C-1 0 -1 0 0 0 Z " fill="#C9C7C4" transform="translate(147,82)"/>
<path d="M0 0 C0.33 0.66 0.66 1.32 1 2 C1.5775 1.649375 2.155 1.29875 2.75 0.9375 C5.35801776 -0.14917407 6.39417629 0.06934867 9 1 C6.64031256 3.09749995 5.45383006 3.96905704 2.25 4.1875 C1.13625 4.0946875 1.13625 4.0946875 0 4 C0 2.68 0 1.36 0 0 Z " fill="#AC7055" transform="translate(24,37)"/>
<path d="M0 0 C0.66 0.33 1.32 0.66 2 1 C-0.64 2.98 -3.28 4.96 -6 7 C-6.33 5.68 -6.66 4.36 -7 3 C-6.34 2.34 -5.68 1.68 -5 1 C-5 1.66 -5 2.32 -5 3 C-3.824375 2.2265625 -3.824375 2.2265625 -2.625 1.4375 C-1.75875 0.963125 -0.8925 0.48875 0 0 Z " fill="#754526" transform="translate(53,34)"/>
<path d="M0 0 C0.33 0.66 0.66 1.32 1 2 C-1.66666667 4.66666667 -4.33333333 7.33333333 -7 10 C-7.66 9.67 -8.32 9.34 -9 9 C-6.03 6.03 -3.06 3.06 0 0 Z " fill="#A26F43" transform="translate(71,37)"/>
<path d="M0 0 C-1.29299694 2.88437779 -2.65941363 4.87219421 -5 7 C-5.33 5.02 -5.66 3.04 -6 1 C-4 0 -4 0 0 0 Z " fill="#85621E" transform="translate(12,37)"/>
<path d="M0 0 C1.98 0 3.96 0 6 0 C6.33 0.99 6.66 1.98 7 3 C6 4 6 4 2.9375 4.0625 C1.4834375 4.0315625 1.4834375 4.0315625 0 4 C0 2.68 0 1.36 0 0 Z " fill="#866027" transform="translate(15,38)"/>
<path d="M0 0 C1.9375 0.375 1.9375 0.375 4 1 C5.35439668 3.70879335 5.06501451 6.00933268 5 9 C4.01 8.67 3.02 8.34 2 8 C2.04125 7.236875 2.0825 6.47375 2.125 5.6875 C2.22080824 2.77281584 2.22080824 2.77281584 0 0 Z " fill="#E2AD9C" transform="translate(50,9)"/>
<path d="M0 0 C0.33 0.99 0.66 1.98 1 3 C0.34 3 -0.32 3 -1 3 C-1 3.66 -1 4.32 -1 5 C-4.63 4.67 -8.26 4.34 -12 4 C-12 3.67 -12 3.34 -12 3 C-6.06 2.505 -6.06 2.505 0 2 C0 1.34 0 0.68 0 0 Z " fill="#DED6D0" transform="translate(95,99)"/>
<path d="M0 0 C2.0625 0.4375 2.0625 0.4375 4 1 C4 1.66 4 2.32 4 3 C3.01 3.33 2.02 3.66 1 4 C0.67 4.66 0.34 5.32 0 6 C-0.66 6 -1.32 6 -2 6 C-1.125 1.125 -1.125 1.125 0 0 Z " fill="#ECBBAB" transform="translate(61,15)"/>
<path d="M0 0 C0.99 0 1.98 0 3 0 C2.46930939 3.82097239 1.50298434 6.06171403 -1 9 C-0.67 6.03 -0.34 3.06 0 0 Z " fill="#94928F" transform="translate(140,87)"/>
<path d="M0 0 C1.98 0 3.96 0 6 0 C6.33 0.66 6.66 1.32 7 2 C6.67 2.66 6.34 3.32 6 4 C5.01 4 4.02 4 3 4 C3 3.01 3 2.02 3 1 C1.68 1.33 0.36 1.66 -1 2 C-0.67 1.34 -0.34 0.68 0 0 Z " fill="#655752" transform="translate(44,9)"/>
<path d="M0 0 C0.66 0 1.32 0 2 0 C4.1519437 3.22791555 4.20086443 4.28400809 4 8 C0 3.375 0 3.375 0 0 Z " fill="#9B7456" transform="translate(65,96)"/>
<path d="M0 0 C0.33 0 0.66 0 1 0 C0.67 2.31 0.34 4.62 0 7 C-0.66 7 -1.32 7 -2 7 C-2.33 5.68 -2.66 4.36 -3 3 C-2.34 3 -1.68 3 -1 3 C-0.67 2.01 -0.34 1.02 0 0 Z " fill="#6D4A31" transform="translate(140,77)"/>
<path d="M0 0 C2 1.375 2 1.375 4 3 C4 3.66 4 4.32 4 5 C2.02 5.99 2.02 5.99 0 7 C0 4.69 0 2.38 0 0 Z " fill="#CCB297" transform="translate(86,74)"/>
<path d="M0 0 C0.66 0.33 1.32 0.66 2 1 C1.25 2.9375 1.25 2.9375 0 5 C-2.125 5.75 -2.125 5.75 -4 6 C-3.67 4.35 -3.34 2.7 -3 1 C-2.01 0.67 -1.02 0.34 0 0 Z " fill="#C1BEBB" transform="translate(130,66)"/>
<path d="M0 0 C0.99 0.495 0.99 0.495 2 1 C1.01 1.495 1.01 1.495 0 2 C0 1.34 0 0.68 0 0 Z M-1 3 C-1.33 3.99 -1.66 4.98 -2 6 C-4.0625 6.6875 -4.0625 6.6875 -6 7 C-6 6.01 -6 5.02 -6 4 C-3 3 -3 3 -1 3 Z " fill="#FBD3C6" transform="translate(36,16)"/>
<path d="M0 0 C0 0.66 0 1.32 0 2 C0.66 2.33 1.32 2.66 2 3 C1.01 3.33 0.02 3.66 -1 4 C-3.6875 2.0625 -3.6875 2.0625 -6 0 C-3.50907189 -1.24546405 -2.58919267 -0.7767578 0 0 Z " fill="#97663E" transform="translate(64,7)"/>
</svg>
